<svg xmlns="http://www.w3.org/2000/svg" xmlns:xlink="http://www.w3.org/1999/xlink" width="500" zoomAndPan="magnify" viewBox="0 0 375 374.999991" height="500" preserveAspectRatio="xMidYMid meet" version="1.0"><defs><clipPath id="53e16c88d4"><path d="M 0 54.171875 L 243 54.171875 L 243 136 L 0 136 Z M 0 54.171875 " clip-rule="nonzero"/></clipPath></defs><path fill="#ffffff" d="M 82.144531 246.027344 C 82.980469 247.960938 83.828125 249.898438 84.675781 251.828125 C 87.1875 257.398438 89.40625 262.941406 92.160156 268.53125 L 99.710938 282.96875 L 99.695312 283.144531 L 100.675781 284.851562 C 103.632812 290.015625 106.636719 295.152344 110.09375 300.152344 C 111.824219 302.644531 113.742188 305.082031 115.664062 307.507812 C 117.796875 309.867188 119.839844 312.265625 122.542969 314.398438 C 123.707031 315.511719 125.375 316.480469 126.886719 317.457031 C 128.117188 318.371094 131.46875 319.558594 133.074219 319.851562 L 134.148438 319.96875 L 134.6875 320.023438 L 134.945312 320.050781 L 135.082031 320.070312 C 136.714844 320.1875 135.558594 320.097656 135.941406 320.125 L 135.972656 320.121094 L 136.054688 320.105469 L 138.722656 319.734375 C 140.476562 319.394531 142.285156 319.382812 143.914062 318.574219 C 145.558594 317.878906 147.289062 317.34375 148.792969 316.441406 L 153.09375 313.46875 L 156.671875 309.863281 C 157.757812 308.601562 158.640625 307.210938 159.613281 305.890625 C 161.324219 303.117188 162.71875 300.230469 163.789062 296.976562 C 164.40625 295.355469 164.53125 294.125 164.933594 292.664062 C 165.351562 290.828125 165.472656 289.730469 165.761719 288.230469 C 166.761719 282.605469 167.917969 277.074219 169.359375 271.65625 C 170.859375 266.289062 172.695312 260.941406 175.835938 256.453125 C 177.351562 254.152344 179.320312 252.238281 181.621094 250.691406 C 183.957031 249.183594 186.710938 248.445312 189.605469 248.085938 C 186.769531 247.972656 183.753906 248.222656 180.972656 249.417969 C 178.25 250.644531 175.699219 252.425781 173.640625 254.644531 C 169.507812 259.101562 166.796875 264.539062 164.449219 269.945312 C 162.101562 275.382812 160.398438 280.992188 158.710938 286.539062 C 158.3125 287.828125 157.859375 289.550781 157.515625 290.472656 C 156.996094 291.742188 156.589844 293.359375 156 294.347656 C 154.988281 296.453125 153.617188 298.640625 152.085938 300.609375 C 151.257812 301.515625 150.527344 302.519531 149.65625 303.351562 L 146.945312 305.636719 L 143.976562 307.285156 C 142.972656 307.78125 141.867188 307.921875 140.855469 308.296875 C 139.863281 308.777344 138.679688 308.546875 137.621094 308.683594 L 136.261719 308.792969 L 135.78125 308.691406 L 134.726562 308.476562 C 133.941406 308.339844 134.238281 308.042969 133.941406 307.941406 C 133.8125 307.828125 133.605469 307.789062 133.117188 307.34375 C 132.292969 306.644531 131.449219 306.175781 130.625 305.183594 C 128.941406 303.578125 127.355469 301.496094 125.757812 299.496094 C 124.257812 297.3125 122.738281 295.132812 121.34375 292.808594 C 118.546875 288.152344 116.0625 283.199219 113.613281 278.21875 L 113.628906 278.289062 L 113.429688 277.859375 L 106.355469 262.054688 C 103.988281 256.773438 101.9375 251.050781 99.722656 245.574219 C 98.882812 243.523438 98.078125 241.445312 97.277344 239.367188 L -133.523438 239.367188 Z M 82.144531 246.027344 " fill-opacity="1" fill-rule="nonzero"/><g clip-path="url(#53e16c88d4)"><path fill="#0cc0df" d="M -133.523438 135.878906 L 74.503906 135.878906 L 75.429688 128.410156 L 77.082031 120.285156 L 79.390625 112.367188 C 81.308594 107.257812 83.316406 102.132812 86.007812 97.460938 C 88.640625 92.808594 91.71875 88.214844 95.1875 84.847656 C 97.296875 82.859375 99.550781 80.34375 101.53125 78.796875 C 103.582031 77.398438 105.25 75.515625 107.554688 74.398438 L 110.808594 72.449219 C 111.914062 71.941406 113.042969 71.558594 114.152344 71.078125 C 115.253906 70.515625 116.375 70.246094 117.5 70.015625 C 118.621094 69.769531 119.746094 69.34375 120.867188 69.398438 C 125.359375 68.882812 129.90625 69.863281 134.210938 72.171875 C 138.585938 74.585938 142.304688 77.710938 145.96875 82.328125 L 145.671875 81.9375 L 150.222656 87.335938 C 151.777344 89.109375 153.195312 90.953125 154.847656 92.636719 L 160.125 97.4375 C 161.847656 99.042969 163.601562 100.632812 165.683594 101.886719 L 171.652344 105.855469 C 173.761719 106.988281 176.003906 107.941406 178.1875 108.929688 C 180.316406 110.027344 182.667969 110.613281 185.007812 111.199219 C 187.332031 111.804688 189.621094 112.503906 192.03125 112.597656 C 194.417969 112.734375 196.761719 113.261719 199.136719 113.039062 C 201.503906 112.871094 203.871094 112.902344 206.1875 112.542969 C 208.488281 112.09375 210.785156 111.699219 213.027344 111.113281 C 215.21875 110.371094 217.445312 109.75 219.574219 108.917969 C 223.804688 107.140625 227.921875 105.195312 231.679688 102.65625 C 235.476562 100.234375 239.019531 97.441406 242.234375 94.363281 C 234.875 99.359375 226.628906 102.804688 218.3125 104.964844 C 216.226562 105.460938 214.089844 105.75 212.007812 106.15625 C 209.898438 106.410156 207.769531 106.421875 205.6875 106.613281 C 203.589844 106.707031 201.5 106.414062 199.433594 106.339844 C 197.351562 106.320312 195.359375 105.574219 193.347656 105.246094 C 191.304688 104.964844 189.425781 104.097656 187.515625 103.371094 C 185.609375 102.65625 183.699219 101.972656 181.996094 100.792969 C 180.253906 99.710938 178.441406 98.820312 176.746094 97.699219 L 171.96875 93.828125 C 170.304688 92.648438 168.902344 91.113281 167.519531 89.554688 L 163.324219 85.007812 C 162.007812 83.398438 160.878906 81.59375 159.652344 79.90625 L 156.03125 74.804688 L 155.738281 74.410156 C 152.265625 69.367188 147.121094 64.023438 141.144531 60.316406 C 135.140625 56.492188 127.554688 54.191406 120.039062 54.523438 C 112.601562 54.878906 105.335938 57.15625 99.515625 60.777344 C 96.355469 62.269531 93.699219 64.714844 90.796875 66.71875 C 88.023438 68.832031 86.203125 70.792969 83.855469 72.835938 C 78.53125 77.699219 74.683594 83.113281 71.167969 88.746094 C 67.585938 94.347656 65.054688 100.429688 62.726562 106.550781 C 61.714844 109.648438 60.75 112.773438 59.859375 115.902344 C 59.164062 119.074219 58.402344 122.238281 57.789062 125.421875 L 57.273438 129.21875 Z M -133.523438 135.878906 " fill-opacity="1" fill-rule="nonzero"/></g><path fill="#0cc0df" d="M 508.539062 239.363281 L 276.824219 239.363281 C 273.042969 249.824219 269.179688 260.226562 264.695312 270.261719 C 262.003906 276.378906 259.027344 282.339844 255.945312 288.113281 C 252.832031 293.832031 249.351562 299.390625 245.414062 303.691406 C 243.519531 305.796875 241.238281 307.542969 239.929688 307.996094 C 239.679688 308.105469 239.332031 308.15625 239.453125 308.1875 L 236.925781 308.152344 C 236.421875 308.066406 235.925781 308.027344 235.398438 307.984375 L 233.558594 307.558594 C 228.722656 306.160156 224.277344 302.097656 221.242188 296.929688 C 219.683594 294.257812 218.625 291.761719 217.722656 288.480469 L 214.945312 278.550781 C 213.070312 271.898438 211.203125 265.167969 208.566406 258.574219 C 205.84375 252.179688 202.722656 245.101562 196.101562 240.980469 C 194.648438 240.121094 193.054688 239.632812 191.4375 239.371094 L 186.757812 239.371094 C 186.265625 239.449219 185.757812 239.488281 185.289062 239.617188 C 181.78125 240.441406 178.707031 242.179688 175.855469 244.089844 C 181.835938 241.046875 189.53125 239.363281 194.484375 243.460938 C 199.382812 247.347656 201.617188 254 203.40625 260.324219 C 205.15625 266.78125 206.40625 273.472656 207.578125 280.21875 L 209.347656 290.417969 C 209.886719 293.847656 210.945312 297.964844 212.601562 301.378906 C 215.816406 308.347656 221.261719 315.164062 229.453125 318.609375 L 232.554688 319.695312 C 233.695312 319.984375 234.90625 320.222656 236.09375 320.441406 L 238.714844 320.730469 C 240.558594 320.84375 241.925781 320.621094 243.335938 320.289062 C 248.675781 318.765625 251.886719 315.964844 254.875 313.316406 C 260.648438 307.839844 264.886719 301.863281 268.828125 295.804688 C 272.757812 289.75 276.070312 283.445312 279.242188 277.132812 C 284.265625 266.894531 288.867188 256.539062 293 246.042969 Z M 508.539062 239.363281 " fill-opacity="1" fill-rule="nonzero"/><path fill="#ffffff" d="M 317.765625 129.214844 C 316.863281 123.714844 315.546875 118.160156 313.816406 113.160156 L 313.585938 112.476562 C 311.847656 108.421875 310.113281 104.363281 308.125 100.378906 C 306.171875 96.398438 304.101562 92.425781 301.703125 88.601562 C 300.570312 86.664062 299.242188 84.804688 297.964844 82.929688 C 296.730469 81.039062 295.207031 79.261719 293.851562 77.4375 C 290.878906 73.894531 287.792969 70.414062 284.121094 67.359375 C 277.035156 61.175781 267.65625 56.285156 257.523438 55.9375 C 252.527344 55.667969 247.574219 56.503906 243.007812 58.066406 C 240.730469 58.871094 238.539062 59.84375 236.441406 60.996094 C 234.382812 62.113281 232.289062 63.527344 230.585938 64.964844 L 230.273438 65.207031 C 226.875 68.402344 223.492188 71.632812 219.945312 74.652344 C 216.414062 77.707031 212.765625 80.597656 209.046875 83.398438 C 207.175781 84.765625 205.261719 86.097656 203.296875 87.339844 C 201.34375 88.601562 199.320312 89.714844 197.265625 90.796875 C 195.1875 91.820312 193.066406 92.792969 190.835938 93.421875 C 188.628906 94.050781 186.257812 94.558594 183.953125 93.9375 C 186.125 94.988281 188.699219 94.941406 191.085938 94.722656 C 193.515625 94.503906 195.890625 93.917969 198.238281 93.257812 C 202.917969 91.847656 207.292969 89.730469 211.621094 87.550781 C 220.21875 83.0625 228.140625 77.503906 235.898438 71.796875 L 235.59375 72.035156 C 237.285156 70.941406 238.859375 70.199219 240.609375 69.433594 C 242.332031 68.699219 244.097656 68.132812 245.875 67.695312 C 249.445312 66.875 253.0625 66.664062 256.523438 67.222656 C 263.460938 68.261719 269.726562 72.09375 275.035156 77.34375 C 277.734375 79.917969 280.082031 83.011719 282.355469 86.136719 C 283.398438 87.804688 284.566406 89.335938 285.515625 91.085938 C 286.503906 92.800781 287.542969 94.46875 288.421875 96.269531 C 290.308594 99.765625 292.074219 103.390625 293.671875 107.097656 C 295.269531 110.667969 296.65625 114.367188 298.046875 118.054688 C 299.820312 124.121094 300.679688 129.78125 301.160156 135.878906 L 508.535156 135.878906 Z M 317.765625 129.214844 " fill-opacity="1" fill-rule="nonzero"/></svg>