<svg xmlns="http://www.w3.org/2000/svg" xmlns:xlink="http://www.w3.org/1999/xlink" width="500" zoomAndPan="magnify" viewBox="0 0 375 374.999991" height="500" preserveAspectRatio="xMidYMid meet" version="1.0"><defs><g/><clipPath id="82fa1df4af"><path d="M 175 182 L 375 182 L 375 263.25 L 175 263.25 Z M 175 182 " clip-rule="nonzero"/></clipPath></defs><rect x="-37.5" width="450" fill="#ffffff" y="-37.499999" height="449.999989" fill-opacity="1"/><rect x="-37.5" width="450" fill="#023e8a" y="-37.499999" height="449.999989" fill-opacity="1"/><g fill="#ff5757" fill-opacity="1"><g transform="translate(12.644535, 308.208085)"><g><path d="M 5.078125 -33.171875 L 12.109375 -33.171875 L 17.0625 -19.25 L 27.84375 -33.171875 L 35.59375 -33.171875 L 19.53125 -13.734375 L 16.625 0 L 9.984375 0 L 12.875 -13.734375 Z M 5.078125 -33.171875 "/></g></g></g><g fill="#ff5757" fill-opacity="1"><g transform="translate(40.246172, 308.208085)"><g><path d="M 1.953125 -10.59375 C 1.953125 -13.257812 2.582031 -15.695312 3.84375 -17.90625 C 5.113281 -20.125 6.863281 -21.867188 9.09375 -23.140625 C 11.332031 -24.410156 13.78125 -25.046875 16.4375 -25.046875 C 19.863281 -25.046875 22.585938 -24.078125 24.609375 -22.140625 C 26.640625 -20.210938 27.65625 -17.582031 27.65625 -14.25 C 27.65625 -11.4375 27.046875 -8.90625 25.828125 -6.65625 C 24.609375 -4.40625 22.890625 -2.640625 20.671875 -1.359375 C 18.453125 -0.078125 15.914062 0.5625 13.0625 0.5625 C 9.613281 0.5625 6.898438 -0.429688 4.921875 -2.421875 C 2.941406 -4.421875 1.953125 -7.144531 1.953125 -10.59375 Z M 21 -14.25 C 21 -18.144531 19.367188 -20.09375 16.109375 -20.09375 C 14.617188 -20.09375 13.296875 -19.601562 12.140625 -18.625 C 10.984375 -17.644531 10.101562 -16.382812 9.5 -14.84375 C 8.894531 -13.3125 8.59375 -11.738281 8.59375 -10.125 C 8.59375 -8.25 9.019531 -6.820312 9.875 -5.84375 C 10.738281 -4.863281 11.976562 -4.375 13.59375 -4.375 C 15.144531 -4.375 16.484375 -4.882812 17.609375 -5.90625 C 18.734375 -6.9375 19.578125 -8.210938 20.140625 -9.734375 C 20.710938 -11.253906 21 -12.757812 21 -14.25 Z M 21 -14.25 "/></g></g></g><g fill="#ff5757" fill-opacity="1"><g transform="translate(69.273445, 308.208085)"><g><path d="M 17.484375 -2.375 C 15.328125 -0.414062 13.015625 0.5625 10.546875 0.5625 C 8.109375 0.5625 6.164062 -0.140625 4.71875 -1.546875 C 3.28125 -2.953125 2.5625 -4.859375 2.5625 -7.265625 C 2.5625 -7.929688 2.609375 -8.585938 2.703125 -9.234375 C 2.796875 -9.890625 2.988281 -10.863281 3.28125 -12.15625 L 5.9375 -24.46875 L 12.3125 -24.46875 L 9.9375 -12.96875 C 9.90625 -12.75 9.773438 -12.082031 9.546875 -10.96875 C 9.328125 -9.863281 9.21875 -8.820312 9.21875 -7.84375 C 9.21875 -6.789062 9.535156 -5.945312 10.171875 -5.3125 C 10.804688 -4.6875 11.644531 -4.375 12.6875 -4.375 C 14.425781 -4.375 15.859375 -5.015625 16.984375 -6.296875 C 18.109375 -7.578125 18.988281 -9.675781 19.625 -12.59375 L 22.140625 -24.46875 L 28.515625 -24.46875 L 24.421875 -5.515625 C 23.878906 -3.140625 23.53125 -1.300781 23.375 0 L 17.15625 0 L 17.578125 -2.375 Z M 17.484375 -2.375 "/></g></g></g><g fill="#ff5757" fill-opacity="1"><g transform="translate(98.300718, 308.208085)"><g><path d="M 5.9375 -24.46875 L 12.015625 -24.46875 L 11.171875 -19.859375 L 11.265625 -19.859375 C 11.898438 -21.285156 12.90625 -22.503906 14.28125 -23.515625 C 15.65625 -24.535156 17.070312 -25.046875 18.53125 -25.046875 C 19.476562 -25.046875 20.269531 -24.960938 20.90625 -24.796875 L 19.578125 -18.578125 C 18.816406 -18.828125 18.007812 -18.953125 17.15625 -18.953125 C 15.21875 -18.953125 13.609375 -18.238281 12.328125 -16.8125 C 11.046875 -15.394531 10.148438 -13.445312 9.640625 -10.96875 L 7.359375 0 L 1 0 L 5.375 -21.1875 C 5.5 -21.789062 5.6875 -22.882812 5.9375 -24.46875 Z M 5.9375 -24.46875 "/></g></g></g><g fill="#ff5757" fill-opacity="1"><g transform="translate(116.781254, 308.208085)"><g/></g></g><g fill="#ff5757" fill-opacity="1"><g transform="translate(129.988433, 308.208085)"><g><path d="M 10.3125 -4.65625 C 12.082031 -4.65625 13.578125 -5.101562 14.796875 -6 C 16.015625 -6.90625 16.625 -8.179688 16.625 -9.828125 C 16.625 -10.941406 16.273438 -11.867188 15.578125 -12.609375 C 14.890625 -13.359375 13.734375 -14.175781 12.109375 -15.0625 C 10.585938 -15.914062 9.382812 -16.664062 8.5 -17.3125 C 7.613281 -17.96875 6.863281 -18.816406 6.25 -19.859375 C 5.632812 -20.898438 5.328125 -22.179688 5.328125 -23.703125 C 5.328125 -25.859375 5.867188 -27.6875 6.953125 -29.1875 C 8.046875 -30.695312 9.523438 -31.832031 11.390625 -32.59375 C 13.265625 -33.351562 15.375 -33.734375 17.71875 -33.734375 C 20.988281 -33.734375 23.84375 -33.242188 26.28125 -32.265625 L 24.703125 -26.796875 C 23.691406 -27.304688 22.582031 -27.71875 21.375 -28.03125 C 20.175781 -28.351562 18.988281 -28.515625 17.8125 -28.515625 C 16.394531 -28.515625 15.113281 -28.203125 13.96875 -27.578125 C 12.832031 -26.960938 12.265625 -26.003906 12.265625 -24.703125 C 12.265625 -23.660156 12.644531 -22.789062 13.40625 -22.09375 C 14.164062 -21.394531 15.539062 -20.460938 17.53125 -19.296875 C 19.40625 -18.273438 20.878906 -17.066406 21.953125 -15.671875 C 23.023438 -14.285156 23.5625 -12.5625 23.5625 -10.5 C 23.5625 -6.820312 22.332031 -4.054688 19.875 -2.203125 C 17.425781 -0.359375 14.113281 0.5625 9.9375 0.5625 C 7.019531 0.5625 3.863281 -0.0507812 0.46875 -1.28125 L 2.1875 -6.9375 C 3.988281 -6.113281 5.523438 -5.523438 6.796875 -5.171875 C 8.066406 -4.828125 9.238281 -4.65625 10.3125 -4.65625 Z M 10.3125 -4.65625 "/></g></g></g><g fill="#ff5757" fill-opacity="1"><g transform="translate(156.402779, 308.208085)"><g><path d="M 34.015625 -17.109375 C 34.015625 -17.992188 33.726562 -18.710938 33.15625 -19.265625 C 32.59375 -19.816406 31.867188 -20.09375 30.984375 -20.09375 C 29.335938 -20.09375 28.015625 -19.359375 27.015625 -17.890625 C 26.015625 -16.421875 25.210938 -14.195312 24.609375 -11.21875 L 22.1875 0 L 15.828125 0 L 18.4375 -12.109375 C 18.945312 -14.453125 19.203125 -16.132812 19.203125 -17.15625 C 19.203125 -18.070312 18.90625 -18.789062 18.3125 -19.3125 C 17.726562 -19.832031 17.023438 -20.09375 16.203125 -20.09375 C 14.523438 -20.09375 13.203125 -19.375 12.234375 -17.9375 C 11.265625 -16.5 10.460938 -14.320312 9.828125 -11.40625 L 7.359375 0 L 1 0 L 4.984375 -19.4375 C 5.492188 -21.8125 5.828125 -23.488281 5.984375 -24.46875 L 11.921875 -24.46875 L 11.359375 -21.1875 L 11.453125 -21.1875 C 12.367188 -22.519531 13.492188 -23.492188 14.828125 -24.109375 C 16.160156 -24.734375 17.535156 -25.046875 18.953125 -25.046875 C 20.535156 -25.046875 21.929688 -24.609375 23.140625 -23.734375 C 24.347656 -22.859375 25.03125 -21.742188 25.1875 -20.390625 L 25.28125 -20.390625 C 26.101562 -21.972656 27.320312 -23.144531 28.9375 -23.90625 C 30.550781 -24.664062 32.179688 -25.046875 33.828125 -25.046875 C 35.066406 -25.046875 36.207031 -24.742188 37.25 -24.140625 C 38.289062 -23.535156 39.117188 -22.71875 39.734375 -21.6875 C 40.359375 -20.65625 40.671875 -19.539062 40.671875 -18.34375 C 40.671875 -17.488281 40.597656 -16.648438 40.453125 -15.828125 C 40.316406 -15.003906 40.101562 -13.925781 39.8125 -12.59375 L 37.015625 0 L 30.640625 0 L 33.21875 -11.875 C 33.75 -14.3125 34.015625 -16.054688 34.015625 -17.109375 Z M 34.015625 -17.109375 "/></g></g></g><g fill="#ff5757" fill-opacity="1"><g transform="translate(198.637232, 308.208085)"><g><path d="M 14.921875 -35.015625 L 13.59375 -28.9375 L 7.21875 -28.9375 L 8.546875 -35.015625 Z M 12.59375 -24.46875 L 7.359375 0 L 1 0 L 6.21875 -24.46875 Z M 12.59375 -24.46875 "/></g></g></g><g fill="#ff5757" fill-opacity="1"><g transform="translate(211.844411, 308.208085)"><g><path d="M 14.921875 -35.640625 L 7.359375 0 L 1 0 L 8.546875 -35.640625 Z M 14.921875 -35.640625 "/></g></g></g><g fill="#ff5757" fill-opacity="1"><g transform="translate(225.051578, 308.208085)"><g><path d="M 13.296875 0.5625 C 9.566406 0.5625 6.671875 -0.359375 4.609375 -2.203125 C 2.546875 -4.054688 1.515625 -6.695312 1.515625 -10.125 C 1.515625 -12.625 2.109375 -15.019531 3.296875 -17.3125 C 4.484375 -19.613281 6.144531 -21.476562 8.28125 -22.90625 C 10.425781 -24.332031 12.8125 -25.046875 15.4375 -25.046875 C 18.601562 -25.046875 21.066406 -24.226562 22.828125 -22.59375 C 24.585938 -20.957031 25.46875 -18.671875 25.46875 -15.734375 C 25.46875 -14.015625 25.257812 -12.191406 24.84375 -10.265625 L 7.609375 -10.265625 C 7.609375 -8.140625 8.160156 -6.578125 9.265625 -5.578125 C 10.367188 -4.585938 12.078125 -4.09375 14.390625 -4.09375 C 16.804688 -4.09375 19.3125 -4.675781 21.90625 -5.84375 L 21.09375 -0.8125 C 18.175781 0.101562 15.578125 0.5625 13.296875 0.5625 Z M 19.390625 -16.296875 C 19.390625 -17.398438 19.09375 -18.359375 18.5 -19.171875 C 17.914062 -19.984375 16.847656 -20.390625 15.296875 -20.390625 C 13.679688 -20.390625 12.316406 -19.941406 11.203125 -19.046875 C 10.097656 -18.160156 9.179688 -16.691406 8.453125 -14.640625 L 19.25 -14.640625 C 19.34375 -15.171875 19.390625 -15.722656 19.390625 -16.296875 Z M 19.390625 -16.296875 "/></g></g></g><g fill="#ff5757" fill-opacity="1"><g transform="translate(251.465937, 308.208085)"><g><path d="M 10.265625 -6.65625 L 3.9375 5.234375 L -1.765625 5.234375 L 3.09375 -6.65625 Z M 10.265625 -6.65625 "/></g></g></g><g fill="#ff5757" fill-opacity="1"><g transform="translate(264.673128, 308.208085)"><g/></g></g><g fill="#ff5757" fill-opacity="1"><g transform="translate(277.880296, 308.208085)"><g><path d="M 3.28125 -13.203125 C 3.28125 -16.535156 4.023438 -19.785156 5.515625 -22.953125 C 7.003906 -26.117188 9.1875 -28.707031 12.0625 -30.71875 C 14.945312 -32.726562 18.304688 -33.734375 22.140625 -33.734375 C 26.546875 -33.734375 29.953125 -32.515625 32.359375 -30.078125 C 34.765625 -27.640625 35.96875 -24.171875 35.96875 -19.671875 C 35.96875 -16.753906 35.34375 -13.742188 34.09375 -10.640625 C 32.84375 -7.535156 30.734375 -4.890625 27.765625 -2.703125 C 24.804688 -0.523438 21.015625 0.5625 16.390625 0.5625 C 13.796875 0.5625 11.507812 -0.00390625 9.53125 -1.140625 C 7.550781 -2.273438 6.015625 -3.878906 4.921875 -5.953125 C 3.828125 -8.035156 3.28125 -10.453125 3.28125 -13.203125 Z M 29.03125 -20.390625 C 29.03125 -22.765625 28.421875 -24.710938 27.203125 -26.234375 C 25.984375 -27.753906 24.21875 -28.515625 21.90625 -28.515625 C 19.53125 -28.515625 17.453125 -27.710938 15.671875 -26.109375 C 13.898438 -24.503906 12.546875 -22.488281 11.609375 -20.0625 C 10.679688 -17.644531 10.21875 -15.25 10.21875 -12.875 C 10.21875 -10.4375 10.832031 -8.457031 12.0625 -6.9375 C 13.300781 -5.414062 15.015625 -4.65625 17.203125 -4.65625 C 19.609375 -4.65625 21.707031 -5.476562 23.5 -7.125 C 25.289062 -8.769531 26.660156 -10.820312 27.609375 -13.28125 C 28.554688 -15.738281 29.03125 -18.109375 29.03125 -20.390625 Z M 29.03125 -20.390625 "/></g></g></g><g fill="#ff5757" fill-opacity="1"><g transform="translate(314.841368, 308.208085)"><g><path d="M 17.484375 -2.375 C 15.328125 -0.414062 13.015625 0.5625 10.546875 0.5625 C 8.109375 0.5625 6.164062 -0.140625 4.71875 -1.546875 C 3.28125 -2.953125 2.5625 -4.859375 2.5625 -7.265625 C 2.5625 -7.929688 2.609375 -8.585938 2.703125 -9.234375 C 2.796875 -9.890625 2.988281 -10.863281 3.28125 -12.15625 L 5.9375 -24.46875 L 12.3125 -24.46875 L 9.9375 -12.96875 C 9.90625 -12.75 9.773438 -12.082031 9.546875 -10.96875 C 9.328125 -9.863281 9.21875 -8.820312 9.21875 -7.84375 C 9.21875 -6.789062 9.535156 -5.945312 10.171875 -5.3125 C 10.804688 -4.6875 11.644531 -4.375 12.6875 -4.375 C 14.425781 -4.375 15.859375 -5.015625 16.984375 -6.296875 C 18.109375 -7.578125 18.988281 -9.675781 19.625 -12.59375 L 22.140625 -24.46875 L 28.515625 -24.46875 L 24.421875 -5.515625 C 23.878906 -3.140625 23.53125 -1.300781 23.375 0 L 17.15625 0 L 17.578125 -2.375 Z M 17.484375 -2.375 "/></g></g></g><g fill="#ff5757" fill-opacity="1"><g transform="translate(343.868664, 308.208085)"><g><path d="M 5.9375 -24.46875 L 12.015625 -24.46875 L 11.171875 -19.859375 L 11.265625 -19.859375 C 11.898438 -21.285156 12.90625 -22.503906 14.28125 -23.515625 C 15.65625 -24.535156 17.070312 -25.046875 18.53125 -25.046875 C 19.476562 -25.046875 20.269531 -24.960938 20.90625 -24.796875 L 19.578125 -18.578125 C 18.816406 -18.828125 18.007812 -18.953125 17.15625 -18.953125 C 15.21875 -18.953125 13.609375 -18.238281 12.328125 -16.8125 C 11.046875 -15.394531 10.148438 -13.445312 9.640625 -10.96875 L 7.359375 0 L 1 0 L 5.375 -21.1875 C 5.5 -21.789062 5.6875 -22.882812 5.9375 -24.46875 Z M 5.9375 -24.46875 "/></g></g></g><g fill="#ff5757" fill-opacity="1"><g transform="translate(105.63281, 374.208081)"><g><path d="M 14.34375 -33.171875 C 19.226562 -33.171875 22.753906 -32.476562 24.921875 -31.09375 C 27.085938 -29.71875 28.171875 -27.539062 28.171875 -24.5625 C 28.171875 -22.0625 27.550781 -19.90625 26.3125 -18.09375 C 25.082031 -16.289062 23.40625 -14.921875 21.28125 -13.984375 C 19.164062 -13.054688 16.789062 -12.59375 14.15625 -12.59375 L 10.3125 -12.59375 L 7.65625 0 L 1 0 L 8.03125 -33.171875 Z M 21.234375 -23.859375 C 21.234375 -26.578125 19.398438 -27.9375 15.734375 -27.9375 L 13.59375 -27.9375 L 11.453125 -17.8125 L 13.734375 -17.8125 C 15.953125 -17.8125 17.753906 -18.359375 19.140625 -19.453125 C 20.535156 -20.546875 21.234375 -22.015625 21.234375 -23.859375 Z M 21.234375 -23.859375 "/></g></g></g><g fill="#ff5757" fill-opacity="1"><g transform="translate(132.047157, 374.208081)"><g><path d="M 5.9375 -24.46875 L 12.015625 -24.46875 L 11.171875 -19.859375 L 11.265625 -19.859375 C 11.898438 -21.285156 12.90625 -22.503906 14.28125 -23.515625 C 15.65625 -24.535156 17.070312 -25.046875 18.53125 -25.046875 C 19.476562 -25.046875 20.269531 -24.960938 20.90625 -24.796875 L 19.578125 -18.578125 C 18.816406 -18.828125 18.007812 -18.953125 17.15625 -18.953125 C 15.21875 -18.953125 13.609375 -18.238281 12.328125 -16.8125 C 11.046875 -15.394531 10.148438 -13.445312 9.640625 -10.96875 L 7.359375 0 L 1 0 L 5.375 -21.1875 C 5.5 -21.789062 5.6875 -22.882812 5.9375 -24.46875 Z M 5.9375 -24.46875 "/></g></g></g><g fill="#ff5757" fill-opacity="1"><g transform="translate(150.527693, 374.208081)"><g><path d="M 14.921875 -35.015625 L 13.59375 -28.9375 L 7.21875 -28.9375 L 8.546875 -35.015625 Z M 12.59375 -24.46875 L 7.359375 0 L 1 0 L 6.21875 -24.46875 Z M 12.59375 -24.46875 "/></g></g></g><g fill="#ff5757" fill-opacity="1"><g transform="translate(163.734872, 374.208081)"><g><path d="M 1.953125 -10.59375 C 1.953125 -13.257812 2.582031 -15.695312 3.84375 -17.90625 C 5.113281 -20.125 6.863281 -21.867188 9.09375 -23.140625 C 11.332031 -24.410156 13.78125 -25.046875 16.4375 -25.046875 C 19.863281 -25.046875 22.585938 -24.078125 24.609375 -22.140625 C 26.640625 -20.210938 27.65625 -17.582031 27.65625 -14.25 C 27.65625 -11.4375 27.046875 -8.90625 25.828125 -6.65625 C 24.609375 -4.40625 22.890625 -2.640625 20.671875 -1.359375 C 18.453125 -0.078125 15.914062 0.5625 13.0625 0.5625 C 9.613281 0.5625 6.898438 -0.429688 4.921875 -2.421875 C 2.941406 -4.421875 1.953125 -7.144531 1.953125 -10.59375 Z M 21 -14.25 C 21 -18.144531 19.367188 -20.09375 16.109375 -20.09375 C 14.617188 -20.09375 13.296875 -19.601562 12.140625 -18.625 C 10.984375 -17.644531 10.101562 -16.382812 9.5 -14.84375 C 8.894531 -13.3125 8.59375 -11.738281 8.59375 -10.125 C 8.59375 -8.25 9.019531 -6.820312 9.875 -5.84375 C 10.738281 -4.863281 11.976562 -4.375 13.59375 -4.375 C 15.144531 -4.375 16.484375 -4.882812 17.609375 -5.90625 C 18.734375 -6.9375 19.578125 -8.210938 20.140625 -9.734375 C 20.710938 -11.253906 21 -12.757812 21 -14.25 Z M 21 -14.25 "/></g></g></g><g fill="#ff5757" fill-opacity="1"><g transform="translate(192.762145, 374.208081)"><g><path d="M 5.9375 -24.46875 L 12.015625 -24.46875 L 11.171875 -19.859375 L 11.265625 -19.859375 C 11.898438 -21.285156 12.90625 -22.503906 14.28125 -23.515625 C 15.65625 -24.535156 17.070312 -25.046875 18.53125 -25.046875 C 19.476562 -25.046875 20.269531 -24.960938 20.90625 -24.796875 L 19.578125 -18.578125 C 18.816406 -18.828125 18.007812 -18.953125 17.15625 -18.953125 C 15.21875 -18.953125 13.609375 -18.238281 12.328125 -16.8125 C 11.046875 -15.394531 10.148438 -13.445312 9.640625 -10.96875 L 7.359375 0 L 1 0 L 5.375 -21.1875 C 5.5 -21.789062 5.6875 -22.882812 5.9375 -24.46875 Z M 5.9375 -24.46875 "/></g></g></g><g fill="#ff5757" fill-opacity="1"><g transform="translate(211.242681, 374.208081)"><g><path d="M 14.921875 -35.015625 L 13.59375 -28.9375 L 7.21875 -28.9375 L 8.546875 -35.015625 Z M 12.59375 -24.46875 L 7.359375 0 L 1 0 L 6.21875 -24.46875 Z M 12.59375 -24.46875 "/></g></g></g><g fill="#ff5757" fill-opacity="1"><g transform="translate(224.44986, 374.208081)"><g><path d="M 11.875 0.5625 C 6.96875 0.5625 4.515625 -1.585938 4.515625 -5.890625 C 4.515625 -6.679688 4.578125 -7.488281 4.703125 -8.3125 C 4.828125 -9.132812 5.050781 -10.273438 5.375 -11.734375 L 7.125 -19.8125 L 2.515625 -19.8125 L 3.515625 -24.46875 L 8.125 -24.46875 L 9.21875 -29.5 L 16.0625 -31.734375 L 14.5 -24.46875 L 20.1875 -24.46875 L 19.203125 -19.8125 L 13.5 -19.8125 L 11.265625 -9.546875 C 11.003906 -8.378906 10.875 -7.460938 10.875 -6.796875 C 10.875 -6.035156 11.097656 -5.441406 11.546875 -5.015625 C 11.992188 -4.585938 12.578125 -4.375 13.296875 -4.375 C 14.441406 -4.375 15.472656 -4.5625 16.390625 -4.9375 L 15.296875 0 C 13.679688 0.375 12.539062 0.5625 11.875 0.5625 Z M 11.875 0.5625 "/></g></g></g><g fill="#ff5757" fill-opacity="1"><g transform="translate(242.930397, 374.208081)"><g><path d="M 11.921875 -6.265625 L 12.015625 -6.265625 L 21.765625 -24.46875 L 28.75 -24.46875 L 11.734375 4.421875 C 10.460938 6.578125 9.082031 8.132812 7.59375 9.09375 C 6.113281 10.0625 4.390625 10.546875 2.421875 10.546875 C 0.929688 10.546875 -0.648438 10.328125 -2.328125 9.890625 L -0.90625 5.03125 C 0.0703125 5.414062 1.007812 5.609375 1.90625 5.609375 C 2.945312 5.609375 3.867188 5.273438 4.671875 4.609375 C 5.484375 3.941406 6.410156 2.800781 7.453125 1.1875 L 3.140625 -24.46875 L 9.640625 -24.46875 Z M 11.921875 -6.265625 "/></g></g></g><path fill="#ffffff" d="M 83.40625 189.550781 C 84.234375 191.464844 85.070312 193.378906 85.90625 195.285156 C 88.390625 200.789062 90.582031 206.265625 93.304688 211.785156 L 100.761719 226.050781 L 100.75 226.222656 L 101.71875 227.910156 C 104.636719 233.011719 107.609375 238.089844 111.023438 243.027344 C 112.730469 245.492188 114.628906 247.898438 116.527344 250.292969 C 118.632812 252.628906 120.648438 254.996094 123.324219 257.105469 C 124.472656 258.203125 126.121094 259.164062 127.613281 260.125 C 128.832031 261.03125 132.140625 262.199219 133.726562 262.492188 L 134.789062 262.609375 L 135.320312 262.664062 L 135.578125 262.691406 L 135.710938 262.707031 C 137.324219 262.824219 136.183594 262.734375 136.558594 262.761719 L 136.589844 262.757812 L 136.671875 262.742188 L 139.308594 262.378906 C 141.039062 262.039062 142.824219 262.027344 144.4375 261.230469 C 146.0625 260.542969 147.773438 260.011719 149.257812 259.121094 L 153.507812 256.1875 L 157.042969 252.625 C 158.113281 251.375 158.988281 250 159.945312 248.699219 C 161.636719 245.957031 163.015625 243.105469 164.074219 239.890625 C 164.683594 238.289062 164.808594 237.074219 165.207031 235.628906 C 165.617188 233.816406 165.738281 232.730469 166.023438 231.25 C 167.007812 225.691406 168.152344 220.226562 169.578125 214.875 C 171.0625 209.570312 172.875 204.289062 175.976562 199.851562 C 177.472656 197.582031 179.417969 195.6875 181.691406 194.160156 C 184 192.671875 186.71875 191.945312 189.578125 191.585938 C 186.78125 191.472656 183.800781 191.722656 181.050781 192.902344 C 178.359375 194.113281 175.839844 195.875 173.804688 198.066406 C 169.722656 202.46875 167.046875 207.84375 164.726562 213.183594 C 162.40625 218.554688 160.722656 224.097656 159.054688 229.578125 C 158.660156 230.851562 158.214844 232.554688 157.875 233.464844 C 157.363281 234.722656 156.960938 236.316406 156.378906 237.292969 C 155.378906 239.375 154.023438 241.535156 152.511719 243.480469 C 151.695312 244.375 150.96875 245.367188 150.109375 246.1875 L 147.433594 248.445312 L 144.5 250.078125 C 143.507812 250.566406 142.414062 250.707031 141.414062 251.078125 C 140.433594 251.550781 139.265625 251.320312 138.21875 251.457031 L 136.875 251.566406 L 136.398438 251.464844 L 135.359375 251.253906 C 134.582031 251.117188 134.875 250.824219 134.582031 250.722656 C 134.457031 250.613281 134.253906 250.574219 133.769531 250.132812 C 132.953125 249.445312 132.121094 248.980469 131.308594 247.996094 C 129.644531 246.414062 128.074219 244.359375 126.496094 242.382812 C 125.019531 240.222656 123.515625 238.066406 122.136719 235.773438 C 119.375 231.171875 116.917969 226.277344 114.5 221.359375 L 114.515625 221.425781 L 114.320312 221 L 107.328125 205.386719 C 104.992188 200.167969 102.964844 194.515625 100.777344 189.105469 C 99.945312 187.078125 99.152344 185.023438 98.363281 182.972656 L -129.671875 182.972656 Z M 83.40625 189.550781 " fill-opacity="1" fill-rule="nonzero"/><path fill="#0cc0df" d="M -129.671875 80.726562 L 75.859375 80.726562 L 76.773438 73.347656 L 78.40625 65.320312 L 80.691406 57.496094 C 82.585938 52.449219 84.566406 47.386719 87.222656 42.769531 C 89.828125 38.175781 92.867188 33.632812 96.296875 30.304688 C 98.378906 28.34375 100.605469 25.855469 102.5625 24.328125 C 104.589844 22.949219 106.238281 21.085938 108.511719 19.984375 L 111.726562 18.054688 C 112.824219 17.554688 113.933594 17.179688 115.035156 16.703125 C 116.121094 16.148438 117.226562 15.882812 118.339844 15.65625 C 119.449219 15.410156 120.558594 14.992188 121.667969 15.042969 C 126.105469 14.535156 130.597656 15.5 134.847656 17.785156 C 139.171875 20.167969 142.847656 23.257812 146.464844 27.820312 L 146.171875 27.429688 L 150.671875 32.765625 C 152.203125 34.515625 153.605469 36.339844 155.238281 38.003906 L 160.453125 42.746094 C 162.15625 44.332031 163.890625 45.902344 165.945312 47.140625 L 171.84375 51.0625 C 173.929688 52.183594 176.144531 53.125 178.300781 54.101562 C 180.402344 55.1875 182.726562 55.765625 185.039062 56.34375 C 187.335938 56.941406 189.597656 57.632812 191.976562 57.722656 C 194.335938 57.859375 196.652344 58.378906 198.996094 58.160156 C 201.335938 57.992188 203.671875 58.027344 205.960938 57.667969 C 208.234375 57.226562 210.507812 56.835938 212.722656 56.257812 C 214.886719 55.523438 217.085938 54.910156 219.1875 54.085938 C 223.371094 52.332031 227.4375 50.410156 231.148438 47.902344 C 234.902344 45.507812 238.402344 42.75 241.578125 39.707031 C 234.304688 44.644531 226.160156 48.050781 217.945312 50.183594 C 215.882812 50.671875 213.769531 50.957031 211.714844 51.359375 C 209.628906 51.609375 207.527344 51.621094 205.46875 51.8125 C 203.398438 51.902344 201.332031 51.613281 199.292969 51.542969 C 197.234375 51.523438 195.265625 50.785156 193.277344 50.460938 C 191.261719 50.183594 189.402344 49.324219 187.515625 48.605469 C 185.628906 47.902344 183.746094 47.226562 182.0625 46.0625 C 180.339844 44.992188 178.550781 44.113281 176.875 43.003906 L 172.15625 39.179688 C 170.507812 38.015625 169.125 36.496094 167.761719 34.960938 L 163.613281 30.464844 C 162.316406 28.878906 161.199219 27.089844 159.988281 25.425781 L 156.410156 20.386719 L 156.121094 19.996094 C 152.6875 15.011719 147.605469 9.730469 141.699219 6.070312 C 135.765625 2.292969 128.273438 0.0195312 120.847656 0.347656 C 113.5 0.695312 106.320312 2.949219 100.574219 6.523438 C 97.449219 8 94.824219 10.414062 91.957031 12.394531 C 89.21875 14.484375 87.417969 16.417969 85.097656 18.441406 C 79.839844 23.242188 76.035156 28.59375 72.5625 34.160156 C 69.023438 39.695312 66.523438 45.703125 64.226562 51.75 C 63.226562 54.8125 62.273438 57.898438 61.390625 60.988281 C 60.703125 64.121094 59.953125 67.25 59.347656 70.394531 L 58.835938 74.148438 Z M -129.671875 80.726562 " fill-opacity="1" fill-rule="nonzero"/><g clip-path="url(#82fa1df4af)"><path fill="#0cc0df" d="M 504.6875 182.96875 L 275.753906 182.96875 C 272.019531 193.304688 268.203125 203.582031 263.769531 213.496094 C 261.109375 219.539062 258.167969 225.429688 255.125 231.136719 C 252.050781 236.785156 248.609375 242.277344 244.71875 246.523438 C 242.847656 248.605469 240.59375 250.332031 239.300781 250.777344 C 239.054688 250.886719 238.710938 250.9375 238.832031 250.96875 L 236.332031 250.933594 C 235.832031 250.847656 235.34375 250.808594 234.824219 250.765625 L 233.007812 250.34375 C 228.226562 248.964844 223.835938 244.949219 220.839844 239.84375 C 219.296875 237.203125 218.253906 234.738281 217.363281 231.496094 L 214.617188 221.683594 C 212.761719 215.113281 210.917969 208.460938 208.3125 201.949219 C 205.621094 195.632812 202.539062 188.636719 196 184.566406 C 194.5625 183.71875 192.988281 183.234375 191.390625 182.976562 L 186.765625 182.976562 C 186.28125 183.054688 185.78125 183.09375 185.3125 183.21875 C 181.851562 184.035156 178.8125 185.753906 175.996094 187.636719 C 181.90625 184.632812 189.507812 182.96875 194.398438 187.019531 C 199.242188 190.859375 201.449219 197.429688 203.214844 203.679688 C 204.945312 210.058594 206.179688 216.667969 207.335938 223.335938 L 209.085938 233.410156 C 209.621094 236.800781 210.664062 240.867188 212.300781 244.238281 C 215.476562 251.125 220.855469 257.859375 228.949219 261.265625 L 232.011719 262.335938 C 233.144531 262.621094 234.335938 262.855469 235.511719 263.074219 L 238.097656 263.359375 C 239.921875 263.472656 241.273438 263.25 242.667969 262.925781 C 247.941406 261.417969 251.113281 258.652344 254.066406 256.035156 C 259.773438 250.625 263.960938 244.71875 267.855469 238.730469 C 271.734375 232.75 275.007812 226.523438 278.140625 220.289062 C 283.105469 210.171875 287.652344 199.9375 291.734375 189.570312 Z M 504.6875 182.96875 " fill-opacity="1" fill-rule="nonzero"/></g><path fill="#ffffff" d="M 316.203125 74.140625 C 315.3125 68.707031 314.007812 63.222656 312.300781 58.277344 L 312.074219 57.605469 C 310.355469 53.597656 308.640625 49.585938 306.679688 45.652344 C 304.75 41.71875 302.703125 37.792969 300.335938 34.015625 C 299.214844 32.101562 297.902344 30.265625 296.640625 28.410156 C 295.417969 26.542969 293.914062 24.789062 292.574219 22.984375 C 289.640625 19.484375 286.589844 16.046875 282.960938 13.027344 C 275.960938 6.917969 266.695312 2.089844 256.683594 1.746094 C 251.746094 1.480469 246.855469 2.300781 242.339844 3.847656 C 240.09375 4.644531 237.925781 5.601562 235.855469 6.742188 C 233.820312 7.84375 231.75 9.242188 230.066406 10.664062 L 229.761719 10.902344 C 226.402344 14.058594 223.058594 17.25 219.554688 20.234375 C 216.066406 23.25 212.464844 26.109375 208.789062 28.878906 C 206.9375 30.226562 205.046875 31.539062 203.109375 32.769531 C 201.175781 34.015625 199.179688 35.117188 197.148438 36.183594 C 195.09375 37.199219 193 38.15625 190.792969 38.78125 C 188.617188 39.398438 186.273438 39.902344 183.992188 39.285156 C 186.140625 40.328125 188.683594 40.28125 191.042969 40.066406 C 193.445312 39.847656 195.792969 39.269531 198.113281 38.617188 C 202.734375 37.226562 207.054688 35.132812 211.332031 32.980469 C 219.824219 28.542969 227.652344 23.054688 235.316406 17.414062 L 235.015625 17.648438 C 236.6875 16.570312 238.242188 15.835938 239.972656 15.078125 C 241.675781 14.351562 243.417969 13.792969 245.175781 13.363281 C 248.703125 12.546875 252.277344 12.339844 255.695312 12.890625 C 262.550781 13.917969 268.738281 17.707031 273.984375 22.894531 C 276.652344 25.4375 278.972656 28.492188 281.214844 31.582031 C 282.246094 33.226562 283.398438 34.742188 284.339844 36.46875 C 285.316406 38.164062 286.34375 39.8125 287.210938 41.59375 C 289.074219 45.046875 290.820312 48.628906 292.398438 52.292969 C 293.976562 55.820312 295.347656 59.472656 296.722656 63.117188 C 298.472656 69.109375 299.320312 74.703125 299.796875 80.726562 L 504.683594 80.726562 Z M 316.203125 74.140625 " fill-opacity="1" fill-rule="nonzero"/></svg>